# xmcd
#
# Track frame offsets:
#	150
#	19525
#	35996
#	52375
#	69085
#	88339
#	101394
#	110702
#	127240
#	141250
#
# Disc length: 2140 seconds
#
# Revision: 1
# Processed by: cddbd v1.5.1PL0 Copyright (c) Steve Scherf et al.
# Submitted via: EasyCDDAExtractor 7.0.3.1
#
DISCID=97085a0a
DTITLE=Madelaine Lang - Secrets of Success (Christmas Mix)
DYEAR=2004
DGENRE=Chanson
TTITLE0=Secrets of Success (Christmas Mix)
TTITLE1=Christmas Song
TTITLE2=O come all ye faithful
TTITLE3=God rest you merry gentlemen
TTITLE4=White Christmas
TTITLE5=Who would imagine a king
TTITLE6=Winter Wonderland
TTITLE7=Silen Night
TTITLE8=God rest you merry gentlemen (R'nB-Mix)
TTITLE9=Secrets of Success (Instrumental Version)
EXTD=
EXTT0=
EXTT1=
EXTT2=
EXTT3=
EXTT4=
EXTT5=
EXTT6=
EXTT7=
EXTT8=
EXTT9=
PLAYORDER=
